<?xml version="1.0" encoding="UTF-8" standalone="no"?>
<!DOCTYPE svg PUBLIC "-//W3C//DTD SVG 1.1//EN"
 "http://www.w3.org/Graphics/SVG/1.1/DTD/svg11.dtd">
<!-- Generated by graphviz version 2.40.1 (20161225.0304)
 -->
<!-- Title: countries Pages: 1 -->
<svg width="209pt" height="150pt"
 viewBox="0.00 0.00 209.00 150.00" xmlns="http://www.w3.org/2000/svg" xmlns:xlink="http://www.w3.org/1999/xlink">
<g id="graph0" class="graph" transform="scale(1 1) rotate(0) translate(4 146)">
<title>countries</title>
<polygon fill="#ffffff" stroke="transparent" points="-4,4 -4,-146 205,-146 205,4 -4,4"/>
<!-- countries -->
<g id="node1" class="node">
<title>countries</title>
<g id="a_node1"><a xlink:href="../../tables/countries.html" xlink:title="countries" target="_top">
<polygon fill="#ffffff" stroke="transparent" points="8,-4 8,-138 193,-138 193,-4 8,-4"/>
<polygon fill="#f5f5f5" stroke="transparent" points="10.5,-113 10.5,-136 191.5,-136 191.5,-113 10.5,-113"/>
<polygon fill="none" stroke="#000000" points="10.5,-113 10.5,-136 191.5,-136 191.5,-113 10.5,-113"/>
<text text-anchor="start" x="15.5" y="-122.1" font-family="Helvetica,sans-Serif" font-weight="bold" font-size="11.00" fill="#000000">countries</text>
<text text-anchor="start" x="156.5437" y="-121.1" font-family="Helvetica,sans-Serif" font-size="11.00" fill="#000000">[table]</text>
<polygon fill="none" stroke="#000000" points="10.5,-91 10.5,-113 103.5,-113 103.5,-91 10.5,-91"/>
<image xlink:href="../../images/primaryKeys.png" width="11px" height="12px" preserveAspectRatio="xMinYMin meet" x="15.5" y="-108"/>
<text text-anchor="start" x="30.5" y="-98.1" font-family="Helvetica,sans-Serif" font-size="11.00" fill="#000000">code</text>
<polygon fill="none" stroke="#000000" points="103.5,-91 103.5,-113 191.5,-113 191.5,-91 103.5,-91"/>
<text text-anchor="start" x="106.5" y="-98.7" font-family="Helvetica,sans-Serif" font-size="11.00" fill="#000000">char[2]</text>
<polygon fill="none" stroke="#000000" points="10.5,-69 10.5,-91 103.5,-91 103.5,-69 10.5,-69"/>
<text text-anchor="start" x="30.5" y="-76.1" font-family="Helvetica,sans-Serif" font-size="11.00" fill="#000000">name</text>
<polygon fill="none" stroke="#000000" points="103.5,-69 103.5,-91 191.5,-91 191.5,-69 103.5,-69"/>
<text text-anchor="start" x="106.5" y="-76.7" font-family="Helvetica,sans-Serif" font-size="11.00" fill="#000000">varchar[255]</text>
<polygon fill="none" stroke="#000000" points="10.5,-47 10.5,-69 103.5,-69 103.5,-47 10.5,-47"/>
<text text-anchor="start" x="30.5" y="-54.1" font-family="Helvetica,sans-Serif" font-size="11.00" fill="#000000">location</text>
<polygon fill="none" stroke="#000000" points="103.5,-47 103.5,-69 191.5,-69 191.5,-47 103.5,-47"/>
<text text-anchor="start" x="106.2357" y="-54.7" font-family="Helvetica,sans-Serif" font-size="11.00" fill="#000000">geometry[65535]</text>
<polygon fill="none" stroke="#000000" points="10.5,-25 10.5,-47 103.5,-47 103.5,-25 10.5,-25"/>
<text text-anchor="start" x="30.5" y="-32.1" font-family="Helvetica,sans-Serif" font-size="11.00" fill="#000000">population</text>
<polygon fill="none" stroke="#000000" points="103.5,-25 103.5,-47 191.5,-47 191.5,-25 103.5,-25"/>
<text text-anchor="start" x="106.5" y="-32.7" font-family="Helvetica,sans-Serif" font-size="11.00" fill="#000000">int unsigned[10]</text>
<polygon fill="#ffffff" stroke="transparent" points="10.5,-6 10.5,-25 48.5,-25 48.5,-6 10.5,-6"/>
<polygon fill="none" stroke="#000000" points="10.5,-6 10.5,-25 48.5,-25 48.5,-6 10.5,-6"/>
<text text-anchor="start" x="13.5" y="-12.1" font-family="Helvetica,sans-Serif" font-size="11.00" fill="#000000">&lt; 0</text>
<polygon fill="#ffffff" stroke="transparent" points="48.5,-6 48.5,-25 103.5,-25 103.5,-6 48.5,-6"/>
<polygon fill="none" stroke="#000000" points="48.5,-6 48.5,-25 103.5,-25 103.5,-6 48.5,-6"/>
<text text-anchor="start" x="68.1105" y="-12.1" font-family="Helvetica,sans-Serif" font-size="11.00" fill="#000000">0 rows</text>
<polygon fill="#ffffff" stroke="transparent" points="103.5,-6 103.5,-25 191.5,-25 191.5,-6 103.5,-6"/>
<polygon fill="none" stroke="#000000" points="103.5,-6 103.5,-25 191.5,-25 191.5,-6 103.5,-6"/>
<text text-anchor="start" x="172.9053" y="-12.1" font-family="Helvetica,sans-Serif" font-size="11.00" fill="#000000">0 &gt;</text>
<polygon fill="none" stroke="#000000" stroke-width="2" points="9,-5 9,-137 192,-137 192,-5 9,-5"/>
</a>
</g>
</g>
</g>
</svg>
